<?xml version="1.0" standalone="no"?>
<!DOCTYPE svg PUBLIC "-//W3C//DTD SVG 20010904//EN"
 "http://www.w3.org/TR/2001/REC-SVG-20010904/DTD/svg10.dtd">
<svg version="1.0" xmlns="http://www.w3.org/2000/svg"
 width="256.000000pt" height="256.000000pt" viewBox="0 0 256.000000 256.000000"
 preserveAspectRatio="xMidYMid meet">
<metadata>
Created by potrace 1.14, written by Peter Selinger 2001-2017
</metadata>
<g transform="translate(0.000000,256.000000) scale(0.100000,-0.100000)"
fill="#000000" stroke="none">
<path d="M235 2383 c-84 -40 -94 -156 -18 -211 l26 -19 0 -284 0 -284 -29 -31
c-17 -18 -34 -47 -40 -65 -5 -19 -9 -167 -9 -340 l1 -305 24 -35 c37 -52 71
-76 115 -83 16 -2 19 -12 21 -73 1 -39 7 -94 13 -123 26 -122 131 -254 244
-309 112 -55 134 -57 712 -56 513 2 533 2 602 23 208 63 343 255 338 479 l-1
52 44 16 c49 16 99 64 109 105 4 14 7 162 7 330 0 271 -1 310 -17 342 -10 21
-27 44 -39 52 -21 15 -21 21 -22 298 l-1 282 37 37 c21 21 39 45 39 53 1 9 2
26 3 39 5 55 -46 113 -106 121 -135 16 -192 -165 -73 -231 19 -11 20 -23 21
-260 l1 -248 -17 62 c-40 138 -130 247 -254 308 -79 38 -120 47 -251 51 -49 1
-92 3 -94 3 -1 1 11 17 28 37 28 31 31 40 26 80 -6 54 -19 76 -59 100 -28 17
-58 19 -330 19 -270 1 -303 -1 -336 -17 -76 -38 -91 -146 -27 -199 12 -10 20
-19 17 -19 -3 -1 -50 -3 -105 -4 -208 -6 -333 -72 -435 -228 -20 -31 -43 -78
-49 -105 -7 -26 -16 -59 -20 -72 -4 -14 -7 89 -7 228 l1 253 23 12 c37 20 62
66 62 115 0 36 -6 49 -34 77 -19 19 -42 35 -52 35 -11 1 -28 3 -39 4 -11 1
-34 -4 -50 -12z"/>
</g>
</svg>
